HIERARCHY
ROOT HipCenter
{
    OFFSET 0.0 0.0 -0.0
    CHANNELS 6 Xposition Yposition Zposition Zrotation Xrotation Yrotation
    JOINT Spine
    {
        OFFSET 0.0 0.11784408241510391 0.0
        CHANNELS 3 Zrotation Xrotation Yrotation
        JOINT ShoulderCenter
        {
            OFFSET 0.0 0.3131304681301117 0.0
            CHANNELS 3 Zrotation Xrotation Yrotation
            JOINT LeftShoulder
            {
                OFFSET 0.16964055597782135 0.0 0.0
                CHANNELS 3 Zrotation Xrotation Yrotation
                JOINT LeftElbow
                {
                    OFFSET 0.24579742550849915 0.0 0.0
                    CHANNELS 3 Zrotation Xrotation Yrotation
                    JOINT LeftWrist
                    {
                        OFFSET 0.2672228217124939 0.0 0.0
                        CHANNELS 3 Zrotation Xrotation Yrotation
                        JOINT LeftHand
                        {
                            OFFSET 0.03275162726640701 0.0 0.0
                            CHANNELS 3 Zrotation Xrotation Yrotation
                            End Site
                            {
                                OFFSET 0.013100650161504745 0.0 0.0
                            }
                        }
                    }
                }
            }
            JOINT RightShoulder
            {
                OFFSET -0.16964055597782135 0.0 0.0
                CHANNELS 3 Zrotation Xrotation Yrotation
                JOINT RightElbow
                {
                    OFFSET -0.24579742550849915 0.0 0.0
                    CHANNELS 3 Zrotation Xrotation Yrotation
                    JOINT RightWrist
                    {
                        OFFSET -0.2672228217124939 0.0 0.0
                        CHANNELS 3 Zrotation Xrotation Yrotation
                        JOINT RightHand
                        {
                            OFFSET -0.03275162726640701 0.0 0.0
                            CHANNELS 3 Zrotation Xrotation Yrotation
                            End Site
                            {
                                OFFSET -0.013100650161504745 0.0 0.0
                            }
                        }
                    }
                }
            }
            End Site
            {
                OFFSET 0.0 0.12525220215320587 0.0
            }
        }
    }
    JOINT LeftHip
    {
        OFFSET 0.12335805594921112 0.0 0.0
        CHANNELS 3 Zrotation Xrotation Yrotation
        JOINT LeftKnee
        {
            OFFSET 0.0 -0.36662057042121887 0.0
            CHANNELS 3 Zrotation Xrotation Yrotation
            JOINT LeftAnkle
            {
                OFFSET 0.0 -0.3812560439109802 0.0
                CHANNELS 3 Zrotation Xrotation Yrotation
                JOINT LeftFoot
                {
                    OFFSET 0.0 -0.11604933440685272 0.0
                    CHANNELS 3 Zrotation Xrotation Yrotation
                    End Site
                    {
                        OFFSET 0.0 0.0 0.04641973227262497
                    }
                }
            }
        }
    }
    JOINT RightHip
    {
        OFFSET -0.12335805594921112 0.0 0.0
        CHANNELS 3 Zrotation Xrotation Yrotation
        JOINT RightKnee
        {
            OFFSET 0.0 -0.36662057042121887 0.0
            CHANNELS 3 Zrotation Xrotation Yrotation
            JOINT RightAnkle
            {
                OFFSET 0.0 -0.3812560439109802 0.0
                CHANNELS 3 Zrotation Xrotation Yrotation
                JOINT RightFoot
                {
                    OFFSET 0.0 -0.11604933440685272 0.0
                    CHANNELS 3 Zrotation Xrotation Yrotation
                    End Site
                    {
                        OFFSET 0.0 0.0 0.04641973227262497
                    }
                }
            }
        }
    }
}
MOTION
Frames: 5
Frame Time: 0.03333333333333333
0.6809999942779541 -0.04399999976158142 -0.5109999775886536 164.1886261357578 -4.866864346779103 -141.9743179502052 -0.7763239807011119 -20.722575044979454 1.149673874323693 1.1347804737602035e-06 7.127485045596872e-07 -4.319074864156642 174.9795983394133 54.89730011666876 -125.7848578535632 -3.075093888820081e-06 2.693451227883199e-06 48.52148669431398 -6.311522622525587e-06 -69.41795289685379 76.3393420087021 3.1805546814635164e-15 -6.361109362927033e-15 1.7655625192200634e-31 -121.25840913124445 -38.12260743518043 142.4153719517214 2.0399684614097253e-06 1.983158265233272e-06 -96.47970619405118 1.6289374825354851e-06 -39.584496329875385 -55.97493300868259 -6.361109362927032e-15 -5.29668755766019e-31 9.541664044390547e-15 20.871274552885634 -51.82446695941679 50.75754342011813 25.707402235367482 55.390647229082155 -88.92604576852361 93.82525973789868 -46.93233079252151 137.3631625720124 0.0 0.0 3.1805546814635168e-15 -14.751779507196401 -22.949080942080986 20.044136426309134 16.853866977557 41.88318593686644 32.520907635784646 -71.81793248980195 -25.813079104391328 -117.48122477481488 4.696287771848474e-15 -6.3611093629270335e-15 -1.9878466759146953e-16
0.6890000104904175 -0.05400000140070915 -0.5370000004768372 161.71865674555812 -1.9422574077329815 -150.19704780780626 -1.9103613986107415 -21.26239379066133 0.23666071625356863 -6.105980847168446e-08 2.201752841410026e-06 -5.395820290404661 179.7827616924111 54.70624933695685 -132.1188235177075 -1.737642932126161e-06 -7.342802333244646e-06 48.82368477894293 3.156310242212864e-07 -71.44120773360994 75.39597539239183 4.7708320221952736e-15 -1.3241718894150476e-31 -3.180554681463516e-15 -119.32975317624667 -34.26353506191637 144.8277702884838 -4.266799348206063e-07 -2.075263343764011e-06 -98.17556873848072 -3.1872820032239987e-06 -38.49936975658634 -59.32803735987 8.827812596100317e-32 3.1805546814635168e-15 -3.1805546814635168e-15 41.1787821280291 -53.01503251704916 90.79598021978825 56.10670635996551 40.447897656396755 -133.92216453111132 95.64242526136819 -33.407484149876915 151.8649205020245 0.0 0.0 3.1805546814635168e-15 -11.220571697195691 -17.993195208957154 26.625461571769073 18.647933828877484 36.602638517619866 25.53014056863654 -68.56199531505246 -31.228936330792504 -106.42049885519337 -1.1927080055488184e-15 4.969616689786743e-17 5.963540027744092e-16
0.6970000267028809 -0.06599999964237213 -0.5630000233650208 159.1022092354717 0.9731362699327456 -157.54582900803294 -3.357656466453157 -21.9700226193496 -0.8671611205238201 2.0259069551734398e-07 -5.433338441530105e-07 -3.585349006529639 -178.32021817337767 54.341333574117826 -133.68866736276652 -2.4759699043771954e-06 1.5363723793934223e-06 48.052514735258434 -1.7338574188703473e-05 -72.13773628158 73.81542508218473 1.5902773407317584e-15 -4.4139062980501586e-32 -3.1805546814635168e-15 -117.63943836134747 -28.188084632965136 150.81132149666047 -1.4291239679255347e-07 -1.1087442001206979e-06 -99.67994036697833 -1.876546844846884e-06 -34.15185816741821 -58.524286253677325 0.0 0.0 0.0 62.1720397772521 -51.36701716803658 130.26533337006674 65.8693080021072 18.627946026320988 -158.31918697959964 96.09837334309991 -15.140596536052568 169.1470183585204 0.0 3.975693351829396e-16 0.0 -9.402682724698309 -12.371321678907407 33.15817939956285 18.930517130379208 31.25872953989015 20.189494449346842 -66.08033378165199 -31.73452456516645 -100.74669348555385 1.987846675914698e-15 -6.896728590703373e-33 -3.975693351829396e-16
0.7080000042915344 -0.07400000095367432 -0.5899999737739563 156.92958309768068 4.38421531342451 -162.1136408641933 -4.584919823367758 -20.993109094836413 -1.879131532008099 1.4351829375004703e-06 -3.68745502887959e-06 -3.468987449839968 -174.41046786597127 55.22057870213526 -137.9640011927456 -4.959973267516238e-06 1.593669445088057e-06 48.02478851646018 1.234917183471739e-05 -75.38151983027672 74.59008920523185 -3.1805546814635176e-15 0.0 0.0 -119.38513160978586 -21.214027598394903 154.25523181836766 3.2710512442578644e-06 5.5865016375944195e-06 -98.38745947867464 2.857794951021049e-06 -33.67427418684026 -58.89733729830657 -3.975693351829396e-15 -1.1034765745125397e-31 3.1805546814635168e-15 80.33168791236814 -49.548322981166876 156.0800512093304 65.5405864748269 3.831972889548944 -173.47986179251367 90.43221487015457 7.401079872139604 -175.72914633478146 6.3611093629270335e-15 -3.975693351829396e-15 -3.975693351829396e-15 -8.843722987612333 -6.138830372355489 39.50516446744852 18.75437431836364 25.7363235251085 15.829457300462664 -65.30278742041756 -31.024717855150996 -99.26656186688189 2.782985346280577e-15 -5.793252016190833e-32 -2.3854160110976376e-15
0.722000002861023 -0.08399999886751175 -0.6179999709129333 154.746830994803 7.7738339398876 -164.95951655186866 -5.352348985975636 -19.731543751319812 -2.156582754434426 1.3479600670107092e-06 -1.4945901600727575e-06 -4.130709056905593 -171.7762648209258 56.23288393854772 -140.148538697599 1.5844529637482212e-06 -1.7732022661060756e-06 46.84787782241043 7.378115745518675e-06 -78.4325496506236 71.32683384497007 -3.1805546814635168e-15 1.7655625192200634e-31 -6.3611093629270335e-15 -120.58094202851962 -13.4017756130598 156.99640524589003 -2.427493293918408e-06 7.399383963264858e-07 -95.4180239272185 -3.0479998503871237e-06 -32.07276398182643 -54.96326629573778 3.578124016646456e-15 -4.965644585306429e-32 -1.590277340731758e-15 96.18672291805271 -47.586289236280955 173.34012480888194 60.009901346194454 -5.419696934749744 161.2521848285225 87.34452754519728 36.68260135173151 -168.31157443907733 -3.1805546814635176e-15 -7.951386703658792e-16 -3.379339349054987e-15 -8.979600417558046 0.35928900006237996 45.963579864307526 17.088944104464467 19.880536473438877 11.433413330018917 -63.87383830649808 -30.154216022392262 -95.17463144318201 -3.975693351829395e-15 6.361109362927033e-15 1.5902773407317584e-15
